<svg id="visual" viewBox="0 0 1980 300" width="1980" height="300" xmlns="http://www.w3.org/2000/svg" xmlns:xlink="http://www.w3.org/1999/xlink" version="1.1"><path d="M0 232L22 223.2C44 214.3 88 196.7 132 195.3C176 194 220 209 264 207.2C308 205.3 352 186.7 396 185C440 183.3 484 198.7 528 200.3C572 202 616 190 660 194.8C704 199.7 748 221.3 792 236.8C836 252.3 880 261.7 924 248.3C968 235 1012 199 1056 191.2C1100 183.3 1144 203.7 1188 208.8C1232 214 1276 204 1320 212.3C1364 220.7 1408 247.3 1452 259.5C1496 271.7 1540 269.3 1584 255.2C1628 241 1672 215 1716 215.2C1760 215.3 1804 241.7 1848 239.3C1892 237 1936 206 1958 190.5L1980 175L1980 301L1958 301C1936 301 1892 301 1848 301C1804 301 1760 301 1716 301C1672 301 1628 301 1584 301C1540 301 1496 301 1452 301C1408 301 1364 301 1320 301C1276 301 1232 301 1188 301C1144 301 1100 301 1056 301C1012 301 968 301 924 301C880 301 836 301 792 301C748 301 704 301 660 301C616 301 572 301 528 301C484 301 440 301 396 301C352 301 308 301 264 301C220 301 176 301 132 301C88 301 44 301 22 301L0 301Z" fill="#ffffff" stroke-linecap="round" stroke-linejoin="miter"></path></svg>